<?xml version="1.0" encoding="utf-8"?>
<!-- Generator: Adobe Illustrator 25.0.0, SVG Export Plug-In . SVG Version: 6.00 Build 0)  -->
<svg version="1.1" id="Layer_1" xmlns="http://www.w3.org/2000/svg" xmlns:xlink="http://www.w3.org/1999/xlink" x="0px" y="0px"
	 viewBox="0 0 52 52" style="enable-background:new 0 0 52 52;" xml:space="preserve">
<style type="text/css">
	.st0{enable-background:new    ;}
	.st1{fill:#404449;}
	.st2{fill:#CADEFE;}
	.st3{fill:#488EFE;}
</style>
<g class="st0">
	<path class="st1" d="M370.1-37.1v31.2c0,2.3-2.1,4.3-4.6,4.3c-2.4,0-4.6-2-4.6-4.3v-31.2h-8.3c-1.9,0-3.8-1.9-3.8-4
		c0-2.3,1.7-4.1,3.8-4.1h25.8c2.1,0,3.8,1.8,3.8,4.1c0,2.1-1.8,4-3.8,4H370.1z"/>
</g>
<g class="st0">
	<path class="st1" d="M401.4-27.7c0.1-2.1,2.1-3.9,4.4-3.9c2.4,0,4.4,1.7,4.4,3.9v22.2c0,2.2-2,3.9-4.4,3.9c-2.3,0-4.3-1.8-4.4-3.9
		v-0.6c-1.9,3.1-5.5,4.7-8.8,4.7c-7.5,0-14.3-5.5-14.3-15.3c0-9.7,6.8-15.2,14.3-15.2c1.9,0,6.3,0.8,8.8,4.7
		C401.4-27.2,401.4-27.7,401.4-27.7z M394.3-9.1c4,0,7.2-3.5,7.2-7.4s-3.2-7.4-7.2-7.4c-4.4,0-6.9,3.5-6.9,7.4S389.9-9.1,394.3-9.1z
		"/>
</g>
<g class="st0">
	<path class="st1" d="M437.7-27c-0.3,2.2-2.4,3.2-4.3,3.2c-0.6,0-1.6-0.1-2.1-0.1c-4.9,0-6.5,3.8-6.7,11.1v7.2c0,2.2-2,3.9-4.4,3.9
		c-2.3,0-4.3-1.8-4.4-3.9v-22.1c0.1-2.1,2.1-3.9,4.4-3.9c2.4,0,4.4,1.7,4.4,3.9v3.2c1.6-5.5,4.7-7.3,7.7-7.3
		C435.2-31.8,438.2-31.1,437.7-27z"/>
</g>
<g class="st0">
	<path class="st1" d="M463.2-4c-3,1.9-6.7,2.6-10.1,2.6c-8.4,0-15.3-6.1-15.3-15.3s6.9-15.1,15.3-15.1c8.4,0,15,6.2,15,15.4
		c0,1.6-1.3,2.7-2.7,2.7h-18.9c0.4,3.4,4.1,4.8,7.2,4.8c1.8,0,3.3-0.1,5.1-1.4c2-1.4,4.3-1,5.5,0.4C465.9-7.9,465.3-5.2,463.2-4z
		 M459.3-19.2c-0.4-3.6-2.9-5.3-6.2-5.3s-5.8,1.6-6.5,5.3H459.3z"/>
</g>
<g class="st0">
	<path class="st1" d="M486.1-31.2c1.8,0,3.1,1.6,3.1,3.5c0,1.8-1.4,3.4-3.1,3.5h-3v18.8c0,2.2-2,3.9-4.4,3.9c-2.3,0-4.3-1.8-4.4-3.9
		v-18.9h-2.8c-1.8-0.1-3.1-1.6-3.1-3.5c0-1.9,1.4-3.5,3.1-3.5h2.8v-2c0-9,4.5-13.9,12.9-13.9h0.8c2.3,0,4,1.8,4,4c0,2.1-1.8,4-4,4
		h-0.8c-3,0-4.1,2.1-4.1,5.6v2.3L486.1-31.2L486.1-31.2z"/>
</g>
<g class="st0">
	<path class="st1" d="M513-27.7c0.1-2.1,2.1-3.9,4.4-3.9c2.4,0,4.4,1.7,4.4,3.9v22.2c0,2.2-2,3.9-4.4,3.9c-2.3,0-4.3-1.8-4.4-3.9
		v-0.6c-1.9,3.1-5.5,4.7-8.8,4.7c-7.5,0-14.3-5.5-14.3-15.3c0-9.7,6.8-15.2,14.3-15.2c1.9,0,6.3,0.8,8.8,4.7V-27.7z M505.9-9.1
		c4,0,7.2-3.5,7.2-7.4s-3.2-7.4-7.2-7.4c-4.4,0-6.9,3.5-6.9,7.4S501.5-9.1,505.9-9.1z"/>
</g>
<g class="st0">
	<path class="st1" d="M565.3-45.2c2.1,0,3.8,1.8,3.8,4.1c0,2.1-1.8,4-3.8,4h-14.4v9.9h10.7c2.1,0,3.8,1.8,3.8,4c0,2.1-1.8,4-3.8,4
		h-10.7v13.4c0,2.3-2.1,4.3-4.6,4.3c-2.4,0-4.6-2-4.6-4.3v-35.5c0.1-2.1,1.3-3.9,3.6-3.9H565.3z"/>
</g>
<g class="st0">
	<path class="st1" d="M593.3-4c-3,1.9-6.7,2.6-10.1,2.6c-8.4,0-15.3-6.1-15.3-15.3s6.9-15.1,15.3-15.1c8.4,0,15,6.2,15,15.4
		c0,1.6-1.3,2.7-2.7,2.7h-18.9c0.4,3.4,4.1,4.8,7.2,4.8c1.8,0,3.3-0.1,5.1-1.4c2-1.4,4.3-1,5.5,0.4C596.1-7.9,595.5-5.2,593.3-4z
		 M589.5-19.2c-0.4-3.6-2.9-5.3-6.2-5.3s-5.8,1.6-6.5,5.3H589.5z"/>
	<path class="st1" d="M606-47.2c3,0,5.3,2.2,5.3,5.1c0,2.9-2.4,5.2-5.3,5.2c-3,0-5.5-2.3-5.5-5.2S603.1-47.2,606-47.2z M610.4-5.5
		c0,2.2-2,3.9-4.4,3.9c-2.3,0-4.3-1.8-4.4-3.9v-22.2c0.1-2.1,2.1-3.9,4.4-3.9c2.4,0,4.4,1.7,4.4,3.9V-5.5z"/>
</g>
<g class="st0">
	<path class="st1" d="M618.5-31.2v-7.7c0.1-2.1,2.1-3.9,4.4-3.9c2.4,0,4.4,1.7,4.4,3.9v7.7h3.3c1.8,0,3.1,1.6,3.1,3.5
		c0,1.8-1.4,3.4-3.1,3.5h-3.3v18.8c0,2.2-2,3.9-4.4,3.9c-2.3,0-4.3-1.8-4.4-3.9v-18.9h-2.4c-1.8-0.1-3.1-1.6-3.1-3.5
		c0-1.9,1.4-3.5,3.1-3.5L618.5-31.2L618.5-31.2z"/>
</g>
<g class="st0">
	<path class="st1" d="M657.4-27.7c0.1-2.1,2.1-3.9,4.4-3.9c2.4,0,4.4,1.7,4.4,3.9v22.2c0,2.2-2,3.9-4.4,3.9c-2.3,0-4.3-1.8-4.4-3.9
		v-0.6c-1.9,3.1-5.5,4.7-8.8,4.7c-7.5,0-14.3-5.5-14.3-15.3c0-9.7,6.8-15.2,14.3-15.2c1.9,0,6.3,0.8,8.8,4.7V-27.7z M650.3-9.1
		c4,0,7.2-3.5,7.2-7.4s-3.2-7.4-7.2-7.4c-4.4,0-6.9,3.5-6.9,7.4S645.9-9.1,650.3-9.1z"/>
</g>
<g>
	<path class="st2" d="M38.8,6.3c-8.4-8.4-22.1-8.4-30.5,0s-8.4,22.1,0,30.5c3.8,3.8,8.9,6,14.2,6.3c0.7,0,1.1,0.6,1.1,1.2v6.5
		c0,0.7,0.6,1.2,1.2,1.2c0.4,0,0.7-0.2,0.9-0.4l13.7-15.4l0.4-0.5c1.5-1.7,2.7-3.6,3.5-5.7C46.8,21.9,45,12.5,38.8,6.3L38.8,6.3z"/>
	<path class="st3" d="M24.2,31.2c-1.7,0-3.2-0.7-4.5-1.8l-9.2-9.2c-1.3-1.4-1.3-3.8,0.2-5.1c1.4-1.3,3.6-1.3,5,0l8.6,8.6L43.8,3.9
		c1.4-1.3,3.8-1.3,5.1,0.2c1.3,1.4,1.3,3.6,0,5L28.6,29.4C27.5,30.6,25.8,31.2,24.2,31.2z"/>
</g>
</svg>
