<?xml version="1.0" encoding="utf-8"?>
<!-- Generator: Adobe Illustrator 25.0.0, SVG Export Plug-In . SVG Version: 6.00 Build 0)  -->
<svg version="1.1" id="Layer_1" xmlns="http://www.w3.org/2000/svg" xmlns:xlink="http://www.w3.org/1999/xlink" x="0px" y="0px"
	 viewBox="0 0 386.5 69.7" style="enable-background:new 0 0 386.5 69.7;" xml:space="preserve">
<style type="text/css">
	.st0{enable-background:new    ;}
	.st1{fill:#FEFEFE;}
	.st2{opacity:0.2;fill:#FEFEFE;}
</style>
<g id="Layer_2_1_">
	<g id="Layer_1-2">
		<g class="st0">
			<path class="st1" d="M88.6,18v31.2c0,2.3-2.1,4.3-4.6,4.3c-2.4,0-4.6-2-4.6-4.3V18h-8.3c-1.9,0-3.8-1.9-3.8-4
				c0-2.3,1.7-4.1,3.8-4.1h25.8c2.1,0,3.8,1.8,3.8,4.1c0,2.1-1.8,4-3.8,4H88.6z"/>
		</g>
		<g class="st0">
			<path class="st1" d="M119.9,27.4c0.1-2.1,2.1-3.9,4.4-3.9c2.4,0,4.4,1.7,4.4,3.9v22.2c0,2.2-2,3.9-4.4,3.9
				c-2.3,0-4.3-1.8-4.4-3.9V49c-1.9,3.1-5.5,4.7-8.8,4.7c-7.5,0-14.3-5.5-14.3-15.3c0-9.7,6.8-15.2,14.3-15.2c1.9,0,6.3,0.8,8.8,4.7
				C119.9,27.9,119.9,27.4,119.9,27.4z M112.8,46c4,0,7.2-3.5,7.2-7.4s-3.2-7.4-7.2-7.4c-4.4,0-6.9,3.5-6.9,7.4S108.4,46,112.8,46z"
				/>
		</g>
		<g class="st0">
			<path class="st1" d="M156.2,28.1c-0.3,2.2-2.4,3.2-4.3,3.2c-0.6,0-1.6-0.1-2.1-0.1c-4.9,0-6.5,3.8-6.7,11.1v7.2
				c0,2.2-2,3.9-4.4,3.9c-2.3,0-4.3-1.8-4.4-3.9V27.4c0.1-2.1,2.1-3.9,4.4-3.9c2.4,0,4.4,1.7,4.4,3.9v3.2c1.6-5.5,4.7-7.3,7.7-7.3
				C153.7,23.3,156.7,24,156.2,28.1z"/>
		</g>
		<g class="st0">
			<path class="st1" d="M181.7,51.1c-3,1.9-6.7,2.6-10.1,2.6c-8.4,0-15.3-6.1-15.3-15.3s6.9-15.1,15.3-15.1c8.4,0,15,6.2,15,15.4
				c0,1.6-1.3,2.7-2.7,2.7H165c0.4,3.4,4.1,4.8,7.2,4.8c1.8,0,3.3-0.1,5.1-1.4c2-1.4,4.3-1,5.5,0.4
				C184.4,47.2,183.8,49.9,181.7,51.1z M177.8,35.9c-0.4-3.6-2.9-5.3-6.2-5.3s-5.8,1.6-6.5,5.3H177.8z"/>
		</g>
		<g class="st0">
			<path class="st1" d="M204.6,23.9c1.8,0,3.1,1.6,3.1,3.5c0,1.8-1.4,3.4-3.1,3.5h-3v18.8c0,2.2-2,3.9-4.4,3.9
				c-2.3,0-4.3-1.8-4.4-3.9V30.8H190c-1.8-0.1-3.1-1.6-3.1-3.5s1.4-3.5,3.1-3.5h2.8v-2c0-9,4.5-13.9,12.9-13.9h0.8c2.3,0,4,1.8,4,4
				c0,2.1-1.8,4-4,4h-0.8c-3,0-4.1,2.1-4.1,5.6v2.3h3V23.9z"/>
		</g>
		<g class="st0">
			<path class="st1" d="M231.5,27.4c0.1-2.1,2.1-3.9,4.4-3.9c2.4,0,4.4,1.7,4.4,3.9v22.2c0,2.2-2,3.9-4.4,3.9
				c-2.3,0-4.3-1.8-4.4-3.9V49c-1.9,3.1-5.5,4.7-8.8,4.7c-7.5,0-14.3-5.5-14.3-15.3c0-9.7,6.8-15.2,14.3-15.2c1.9,0,6.3,0.8,8.8,4.7
				V27.4z M224.4,46c4,0,7.2-3.5,7.2-7.4s-3.2-7.4-7.2-7.4c-4.4,0-6.9,3.5-6.9,7.4S220,46,224.4,46z"/>
		</g>
		<g class="st0">
			<path class="st1" d="M283.8,9.9c2.1,0,3.8,1.8,3.8,4.1c0,2.1-1.8,4-3.8,4h-14.4v9.9h10.7c2.1,0,3.8,1.8,3.8,4c0,2.1-1.8,4-3.8,4
				h-10.7v13.4c0,2.3-2.1,4.3-4.6,4.3c-2.4,0-4.6-2-4.6-4.3V13.8c0.1-2.1,1.3-3.9,3.6-3.9H283.8z"/>
		</g>
		<g class="st0">
			<path class="st1" d="M311.8,51.1c-3,1.9-6.7,2.6-10.1,2.6c-8.4,0-15.3-6.1-15.3-15.3s6.9-15.1,15.3-15.1s15,6.2,15,15.4
				c0,1.6-1.3,2.7-2.7,2.7h-18.9c0.4,3.4,4.1,4.8,7.2,4.8c1.8,0,3.3-0.1,5.1-1.4c2-1.4,4.3-1,5.5,0.4
				C314.6,47.2,314,49.9,311.8,51.1z M308,35.9c-0.4-3.6-2.9-5.3-6.2-5.3c-3.3,0-5.8,1.6-6.5,5.3H308z"/>
			<path class="st1" d="M324.5,7.9c3,0,5.3,2.2,5.3,5.1s-2.4,5.2-5.3,5.2c-3,0-5.5-2.3-5.5-5.2S321.6,7.9,324.5,7.9z M328.9,49.6
				c0,2.2-2,3.9-4.4,3.9c-2.3,0-4.3-1.8-4.4-3.9V27.4c0.1-2.1,2.1-3.9,4.4-3.9c2.4,0,4.4,1.7,4.4,3.9V49.6z"/>
		</g>
		<g class="st0">
			<path class="st1" d="M337,23.9v-7.7c0.1-2.1,2.1-3.9,4.4-3.9c2.4,0,4.4,1.7,4.4,3.9v7.7h3.3c1.8,0,3.1,1.6,3.1,3.5
				c0,1.8-1.4,3.4-3.1,3.5h-3.3v18.8c0,2.2-2,3.9-4.4,3.9c-2.3,0-4.3-1.8-4.4-3.9V30.8h-2.4c-1.8-0.1-3.1-1.6-3.1-3.5
				s1.4-3.5,3.1-3.5h2.4V23.9z"/>
		</g>
		<g class="st0">
			<path class="st1" d="M375.9,27.4c0.1-2.1,2.1-3.9,4.4-3.9c2.4,0,4.4,1.7,4.4,3.9v22.2c0,2.2-2,3.9-4.4,3.9
				c-2.3,0-4.3-1.8-4.4-3.9V49c-1.9,3.1-5.5,4.7-8.8,4.7c-7.5,0-14.3-5.5-14.3-15.3c0-9.7,6.8-15.2,14.3-15.2c1.9,0,6.3,0.8,8.8,4.7
				V27.4z M368.8,46c4,0,7.2-3.5,7.2-7.4s-3.2-7.4-7.2-7.4c-4.4,0-6.9,3.5-6.9,7.4S364.4,46,368.8,46z"/>
		</g>
		<path class="st2" d="M38.7,14.2c-8.8-8.8-23.2-8.8-32,0s-8.8,23.2,0,32c4,4,9.3,6.3,14.9,6.6c0.7,0,1.2,0.6,1.2,1.3v6.8
			c0,0.7,0.6,1.3,1.3,1.3c0.4,0,0.7-0.2,0.9-0.4l14.4-16.2l0.4-0.5c1.6-1.8,2.8-3.8,3.7-6C47.1,30.6,45.2,20.7,38.7,14.2L38.7,14.2z
			"/>
		<path class="st1" d="M23.4,40.4c-1.8,0-3.4-0.7-4.7-1.9L9,28.8c-1.4-1.5-1.4-4,0.2-5.4c1.5-1.4,3.8-1.4,5.2,0l9,9L44,11.7
			c1.5-1.4,4-1.4,5.4,0.2c1.4,1.5,1.4,3.8,0,5.2L28,38.5C26.8,39.7,25.1,40.4,23.4,40.4z"/>
	</g>
</g>
</svg>
